<svg width="56.000000" height="56.000000" viewBox="0 0 56 56" fill="none" xmlns="http://www.w3.org/2000/svg" xmlns:xlink="http://www.w3.org/1999/xlink">
	<desc>
			Created with Pixso.
	</desc>
	<defs>
		<clipPath id="clip1_958">
			<rect id="IMAGE" width="20.000000" height="20.000000" transform="translate(18.000000 18.000000)" fill="white" fill-opacity="0"/>
		</clipPath>
	</defs>
	<rect id="Rectangle" width="56.000000" height="56.000000" fill="#303851" fill-opacity="1.000000"/>
	<g clip-path="url(#clip1_958)">
		<path id="Vector" d="M19.45 21.76L19.1 20.87L18.34 21.16L18.51 21.96L19.45 21.76ZM34.81 36.46L34.65 37.4L35.41 37.53L35.7 36.82L34.81 36.46ZM36.84 31.47L37.72 31.83L37.26 30.61L36.84 31.47ZM24.68 19.73L25.54 19.31L24.34 18.84L24.68 19.73ZM30.76 31.07L30.27 31.89L31.58 31.56L30.76 31.07ZM25.27 25.8L24.75 25.01L24.49 26.35L25.27 25.8ZM27.11 24.59L27.64 25.39L27.97 24.16L27.11 24.59ZM31.98 29.04L32.4 28.19L31.16 28.55L31.98 29.04ZM34.97 35.51C27.71 34.27 21.93 28.7 20.38 21.55L18.51 21.96C20.23 29.86 26.62 36.02 34.65 37.4L34.97 35.51ZM35.7 36.82L37.72 31.83L35.95 31.11L33.93 36.1L35.7 36.82ZM19.79 22.65L25.03 20.63L24.34 18.84L19.1 20.87L19.79 22.65ZM31.25 30.24C29.37 29.11 27.34 27.08 26.06 25.25L24.49 26.35C25.89 28.34 28.1 30.59 30.27 31.89L31.25 30.24ZM25.8 26.6L27.64 25.39L26.59 23.79L24.75 25.01L25.8 26.6ZM31.58 31.56L32.8 29.53L31.16 28.55L29.94 30.57L31.58 31.56ZM31.55 29.9L36.41 32.33L37.26 30.61L32.4 28.19L31.55 29.9ZM27.97 24.16L25.54 19.31L23.83 20.16L26.26 25.02L27.97 24.16Z" fill="#FFFFFF" fill-opacity="1.000000" fill-rule="nonzero"/>
	</g>
</svg>
