<svg width="56.000000" height="56.000000" viewBox="0 0 56 56" fill="none" xmlns="http://www.w3.org/2000/svg" xmlns:xlink="http://www.w3.org/1999/xlink">
	<desc>
			Created with Pixso.
	</desc>
	<defs>
		<clipPath id="clip1_949">
			<rect id="IMAGE" width="20.000000" height="20.000000" transform="translate(18.000000 18.000000)" fill="white" fill-opacity="0"/>
		</clipPath>
	</defs>
	<rect id="Rectangle" width="56.000000" height="56.000000" fill="#303851" fill-opacity="1.000000"/>
	<g clip-path="url(#clip1_949)">
		<path id="Vector" d="M19.11 19.18L19.11 18.28L18.11 18.28L18.11 19.18L19.11 19.18ZM36.88 31.7L36.88 32.6L37.88 32.6L37.88 31.7L36.88 31.7ZM19.11 31.7L18.11 31.7L18.11 32.6L19.11 32.6L19.11 31.7ZM29.54 31.7L30.21 31.03L29.92 30.8L29.54 30.8L29.54 31.7ZM33.89 35.18L33.22 35.85L34.89 37.18L34.89 35.18L33.89 35.18ZM33.89 31.7L33.89 30.8L32.89 30.8L32.89 31.7L33.89 31.7ZM35.88 21.86L35.88 31.7L37.88 31.7L37.88 21.86L35.88 21.86ZM20.11 31.7L20.11 19.18L18.11 19.18L18.11 31.7L20.11 31.7ZM29.54 30.8L19.11 30.8L19.11 32.6L29.54 32.6L29.54 30.8ZM34.55 34.51L30.21 31.03L28.88 32.37L33.22 35.85L34.55 34.51ZM36.88 30.8L33.89 30.8L33.89 32.6L36.88 32.6L36.88 30.8ZM32.89 31.7L32.89 35.18L34.89 35.18L34.89 31.7L32.89 31.7ZM19.11 20.08L33.91 20.08L33.91 18.28L19.11 18.28L19.11 20.08ZM33.91 20.08C34.51 20.08 35.08 20.33 35.45 20.75L37.01 19.62C36.26 18.77 35.12 18.28 33.91 18.28L33.91 20.08ZM37.88 21.86C37.88 21.05 37.58 20.26 37.01 19.62L35.45 20.75C35.73 21.06 35.88 21.46 35.88 21.86L37.88 21.86Z" fill="#E2001A" fill-opacity="1.000000" fill-rule="nonzero"/>
	</g>
</svg>
