<svg width="20.000000" height="20.000000" viewBox="0 0 20 20" fill="none" xmlns="http://www.w3.org/2000/svg" xmlns:xlink="http://www.w3.org/1999/xlink">
	<desc>
			Created with Pixso.
	</desc>
	<defs>
		<clipPath id="clip1_967">
			<rect id="IMAGE" width="20.000000" height="20.000000" fill="white" fill-opacity="0"/>
		</clipPath>
	</defs>
	<g clip-path="url(#clip1_967)">
		<path id="Vector" d="M6.5 1.66L13.5 1.66C16.16 1.66 18.33 3.83 18.33 6.5L18.33 13.5C18.33 14.78 17.82 16.01 16.91 16.91C16.01 17.82 14.78 18.33 13.5 18.33L6.5 18.33C3.83 18.33 1.66 16.16 1.66 13.5L1.66 6.5C1.66 5.21 2.17 3.98 3.08 3.08C3.98 2.17 5.21 1.66 6.5 1.66ZM6.33 3.33C5.53 3.33 4.77 3.64 4.21 4.21C3.64 4.77 3.33 5.53 3.33 6.33L3.33 13.66C3.33 15.32 4.67 16.66 6.33 16.66L13.66 16.66C14.46 16.66 15.22 16.35 15.78 15.78C16.35 15.22 16.66 14.46 16.66 13.66L16.66 6.33C16.66 4.67 15.32 3.33 13.66 3.33L6.33 3.33ZM14.37 4.58C14.65 4.58 14.91 4.69 15.11 4.88C15.3 5.08 15.41 5.34 15.41 5.62C15.41 5.9 15.3 6.16 15.11 6.36C14.91 6.55 14.65 6.66 14.37 6.66C14.09 6.66 13.83 6.55 13.63 6.36C13.44 6.16 13.33 5.9 13.33 5.62C13.33 5.34 13.44 5.08 13.63 4.88C13.83 4.69 14.09 4.58 14.37 4.58ZM10 5.83C11.1 5.83 12.16 6.27 12.94 7.05C13.72 7.83 14.16 8.89 14.16 10C14.16 11.1 13.72 12.16 12.94 12.94C12.16 13.72 11.1 14.16 10 14.16C8.89 14.16 7.83 13.72 7.05 12.94C6.27 12.16 5.83 11.1 5.83 10C5.83 8.89 6.27 7.83 7.05 7.05C7.83 6.27 8.89 5.83 10 5.83ZM10 7.5C9.33 7.5 8.7 7.76 8.23 8.23C7.76 8.7 7.5 9.33 7.5 10C7.5 10.66 7.76 11.29 8.23 11.76C8.7 12.23 9.33 12.5 10 12.5C10.66 12.5 11.29 12.23 11.76 11.76C12.23 11.29 12.5 10.66 12.5 10C12.5 9.33 12.23 8.7 11.76 8.23C11.29 7.76 10.66 7.5 10 7.5Z" fill="#FFFFFF" fill-opacity="1.000000" fill-rule="nonzero"/>
	</g>
</svg>
