<svg width="14.000000" height="16.000000" viewBox="0 0 14 16" fill="none" xmlns="http://www.w3.org/2000/svg" xmlns:xlink="http://www.w3.org/1999/xlink">
	<desc>
			Created with Pixso.
	</desc>
	<defs>
		<clipPath id="clip1_965">
			<rect id="Frame" width="14.000000" height="16.000000" fill="white" fill-opacity="0"/>
		</clipPath>
	</defs>
	<rect id="Frame" width="14.000000" height="16.000000" fill="#FFFFFF" fill-opacity="0"/>
	<g clip-path="url(#clip1_965)">
		<path id="Vector" d="M6.89 15L6.33 15.36L7.46 15.36L6.89 15ZM10.52 8.18L6.33 14.63L7.46 15.36L11.64 8.9L10.52 8.18ZM6.89 15C7.46 14.63 7.46 14.63 7.46 14.63C7.46 14.63 7.45 14.63 7.45 14.63C7.45 14.63 7.45 14.63 7.45 14.62C7.45 14.62 7.44 14.61 7.43 14.6C7.41 14.57 7.39 14.53 7.36 14.48C7.29 14.38 7.2 14.24 7.08 14.06C6.85 13.7 6.51 13.18 6.12 12.56C5.32 11.34 4.27 9.72 3.27 8.18L2.15 8.9C3.15 10.45 4.2 12.07 4.99 13.29C5.39 13.91 5.72 14.42 5.96 14.79C6.08 14.97 6.17 15.11 6.23 15.21C6.27 15.26 6.29 15.3 6.31 15.32C6.31 15.34 6.32 15.35 6.32 15.35C6.33 15.36 6.33 15.36 6.33 15.36C6.33 15.36 6.33 15.36 6.33 15.36C6.33 15.36 6.33 15.36 6.89 15ZM8.18 5.9C8.18 6.61 7.61 7.19 6.89 7.19L6.89 8.53C8.35 8.53 9.52 7.35 9.52 5.9L8.18 5.9ZM6.89 7.19C6.18 7.19 5.6 6.61 5.6 5.9L4.26 5.9C4.26 7.35 5.44 8.53 6.89 8.53L6.89 7.19ZM5.6 5.9C5.6 5.18 6.18 4.61 6.89 4.61L6.89 3.27C5.44 3.27 4.26 4.44 4.26 5.9L5.6 5.9ZM6.89 4.61C7.61 4.61 8.18 5.18 8.18 5.9L9.52 5.9C9.52 4.44 8.35 3.27 6.89 3.27L6.89 4.61ZM3.27 8.18C2.43 6.87 2.51 5.26 3.24 3.93C3.98 2.61 5.32 1.66 6.89 1.66L6.89 0.33C4.75 0.33 3 1.61 2.07 3.28C1.14 4.96 0.99 7.11 2.15 8.9L3.27 8.18ZM6.89 1.66C8.47 1.66 9.81 2.61 10.54 3.93C11.28 5.26 11.36 6.87 10.52 8.18L11.64 8.9C12.8 7.11 12.65 4.96 11.72 3.28C10.79 1.61 9.03 0.33 6.89 0.33L6.89 1.66Z" fill="#000000" fill-opacity="1.000000" fill-rule="nonzero"/>
	</g>
</svg>
