<svg width="180.000000" height="19.000000" viewBox="0 0 180 19" fill="none" xmlns="http://www.w3.org/2000/svg" xmlns:xlink="http://www.w3.org/1999/xlink">
	<desc>
			Created with Pixso.
	</desc>
	<defs>
		<clipPath id="clip1_937">
			<rect id="Frame" width="180.000000" height="19.000000" fill="white" fill-opacity="0"/>
		</clipPath>
	</defs>
	<rect id="Frame" width="180.000000" height="19.000000" fill="#FFFFFF" fill-opacity="0"/>
	<g clip-path="url(#clip1_937)">
		<path id="Vector" d="M17.32 0L17.27 0.14C17.17 0.47 14.93 7.43 14.45 9.18L11.61 0L3.47 0L0 18.25L7.4 18.25L8.69 10.92C8.74 10.43 8.79 9.93 8.83 9.43C8.92 9.97 9.07 10.5 9.24 11.05L12.01 18.25L16.71 18.25L19.79 10.6C19.95 10.23 20.06 9.83 20.16 9.41L21.49 18.25L28.9 18.25L25.37 0L17.32 0Z" fill="#000000" fill-opacity="1.000000" fill-rule="nonzero"/>
		<path id="Vector" d="M138.67 9.67C138.67 10.96 138.97 13.15 136.79 13.15C134.72 13.15 134.89 10.96 134.89 9.67L134.89 0L126.89 0L126.89 11.21C126.89 16.23 130.4 18.99 136.79 18.99C143.17 18.99 146.69 16.23 146.69 11.21L146.69 0L138.67 0L138.67 9.67L138.67 9.67Z" fill="#000000" fill-opacity="1.000000" fill-rule="nonzero"/>
		<path id="Vector" d="M152.21 0L152.21 6.31L156.71 6.31L156.71 18.25L164.73 18.25L164.73 6.31L169.23 6.31L169.23 0L152.21 0Z" fill="#000000" fill-opacity="1.000000" fill-rule="nonzero"/>
		<path id="Vector" d="M110.71 0L110.66 0.15C110.55 0.47 108.32 7.43 107.84 9.18L105 0L96.86 0L93.38 18.26L100.79 18.26L102.08 10.92C102.13 10.44 102.18 9.93 102.22 9.43C102.31 9.97 102.46 10.49 102.62 11.05L105.4 18.26L110.1 18.26L113.18 10.61C113.33 10.23 113.44 9.83 113.55 9.41L114.88 18.26L122.29 18.26L118.75 0L110.71 0Z" fill="#000000" fill-opacity="1.000000" fill-rule="nonzero"/>
		<path id="Vector" d="M39.53 0L32.81 18.25L40.25 18.25L41.01 16.03L47.68 16.03L48.4 18.25L56.2 18.25L49.32 0L39.53 0ZM46.25 11.57L42.46 11.57L44.39 5.7L46.25 11.57Z" fill="#000000" fill-opacity="1.000000" fill-rule="nonzero"/>
		<path id="Vector" d="M77.44 0L77.39 0.15C77.28 0.47 75.04 7.43 74.57 9.18L71.72 0L63.59 0L60.11 18.26L67.51 18.26L68.8 10.92C68.86 10.44 68.9 9.93 68.94 9.43C69.03 9.97 69.18 10.49 69.35 11.05L72.12 18.26L76.82 18.26L79.91 10.6C80.06 10.23 80.17 9.84 80.27 9.41L81.6 18.26L89.01 18.26L85.48 0L77.44 0Z" fill="#000000" fill-opacity="1.000000" fill-rule="nonzero"/>
		<path id="Vector" d="M176.66 2.96C177.13 2.96 177.54 2.92 177.54 2.42C177.54 1.99 177.09 1.95 176.72 1.95L175.97 1.95L175.97 2.96L176.66 2.96ZM175.97 4.94L175.34 4.94L175.34 1.46L176.78 1.46C177.7 1.46 178.16 1.75 178.16 2.46C178.16 3.09 177.74 3.35 177.18 3.41L178.24 4.94L177.54 4.94L176.56 3.45L175.97 3.45L175.97 4.94ZM176.65 0.54C175.16 0.54 174.01 1.61 174.01 3.14C174.01 4.57 175.02 5.73 176.65 5.73C178.11 5.73 179.27 4.68 179.27 3.14C179.27 1.61 178.11 0.54 176.65 0.54ZM176.65 6.28C174.68 6.28 173.27 4.93 173.27 3.14C173.27 1.25 174.83 0 176.65 0C178.44 0 180 1.25 180 3.14C180 5.03 178.44 6.28 176.65 6.28Z" fill="#000000" fill-opacity="1.000000" fill-rule="nonzero"/>
	</g>
</svg>
