<svg width="20.000000" height="20.000000" viewBox="0 0 20 20" fill="none" xmlns="http://www.w3.org/2000/svg" xmlns:xlink="http://www.w3.org/1999/xlink">
	<desc>
			Created with Pixso.
	</desc>
	<defs>
		<clipPath id="clip1_975">
			<rect id="IMAGE" width="20.000000" height="20.000000" fill="white" fill-opacity="0"/>
		</clipPath>
	</defs>
	<g clip-path="url(#clip1_975)">
		<path id="Vector" d="M7.53 17.94C8.33 18.19 9.14 18.33 10 18.33C12.21 18.33 14.32 17.45 15.89 15.89C17.45 14.32 18.33 12.21 18.33 10C18.33 8.9 18.11 7.82 17.69 6.81C17.28 5.79 16.66 4.88 15.89 4.1C15.11 3.33 14.2 2.71 13.18 2.3C12.17 1.88 11.09 1.66 10 1.66C8.9 1.66 7.82 1.88 6.81 2.3C5.79 2.71 4.88 3.33 4.1 4.1C2.54 5.66 1.66 7.78 1.66 10C1.66 13.54 3.89 16.58 7.03 17.78C6.95 17.13 6.88 16.05 7.03 15.31L7.99 11.19C7.99 11.19 7.75 10.71 7.75 9.94C7.75 8.79 8.46 7.94 9.28 7.94C10 7.94 10.33 8.46 10.33 9.14C10.33 9.85 9.85 10.88 9.61 11.86C9.47 12.68 10.04 13.39 10.88 13.39C12.36 13.39 13.51 11.81 13.51 9.58C13.51 7.58 12.08 6.21 10.02 6.21C7.67 6.21 6.29 7.96 6.29 9.8C6.29 10.52 6.52 11.25 6.9 11.72C6.98 11.77 6.98 11.84 6.95 11.96L6.71 12.87C6.71 13.01 6.62 13.06 6.48 12.96C5.41 12.5 4.79 10.98 4.79 9.75C4.79 7.12 6.66 4.73 10.26 4.73C13.13 4.73 15.36 6.79 15.36 9.52C15.36 12.39 13.59 14.69 11.04 14.69C10.24 14.69 9.44 14.25 9.16 13.75L8.6 15.72C8.41 16.44 7.89 17.39 7.53 17.97L7.53 17.94Z" fill="#FFFFFF" fill-opacity="1.000000" fill-rule="nonzero"/>
	</g>
</svg>
