<svg width="20.000000" height="20.000000" viewBox="0 0 20 20" fill="none" xmlns="http://www.w3.org/2000/svg" xmlns:xlink="http://www.w3.org/1999/xlink">
	<desc>
			Created with Pixso.
	</desc>
	<defs>
		<clipPath id="clip1_971">
			<rect id="IMAGE" width="20.000000" height="20.000000" fill="white" fill-opacity="0"/>
		</clipPath>
	</defs>
	<g clip-path="url(#clip1_971)">
		<path id="Vector" d="M8.33 12.5L12.65 10L8.33 7.5L8.33 12.5ZM17.96 5.97C18.07 6.36 18.14 6.89 18.2 7.55C18.25 8.22 18.28 8.79 18.28 9.29L18.33 10C18.33 11.82 18.2 13.16 17.96 14.02C17.75 14.77 17.27 15.25 16.52 15.46C16.13 15.57 15.41 15.64 14.31 15.69C13.23 15.75 12.24 15.78 11.32 15.78L10 15.83C6.5 15.83 4.33 15.69 3.47 15.46C2.72 15.25 2.24 14.77 2.03 14.02C1.92 13.63 1.84 13.1 1.79 12.44C1.74 11.77 1.71 11.19 1.71 10.69L1.66 10C1.66 8.17 1.79 6.83 2.03 5.97C2.24 5.22 2.72 4.74 3.47 4.53C3.86 4.42 4.58 4.34 5.68 4.29C6.76 4.24 7.75 4.21 8.67 4.21L10 4.16C13.49 4.16 15.66 4.29 16.52 4.53C17.27 4.74 17.75 5.22 17.96 5.97Z" fill="#FFFFFF" fill-opacity="1.000000" fill-rule="nonzero"/>
	</g>
</svg>
